{"title":"Hansel And Gretel Get Baked 2013 HDRiP AC3-2 0 XviD-AXED","uid":8124906,"size":1376887584,"categoryP":"video","categoryS":"movies","magnet":"?xt=urn:btih:8e54ee30338eb0f4d5b59405ebff4142398390e1&amp;dn=Hansel+And+Gretel+Get+Baked+2013+HDRiP+AC3-2+0+XviD-AXED&amp;tr=udp%3A%2F%2Ftracker.openbittorrent.com%3A80&amp;tr=udp%3A%2F%2Fopen.demonii.com%3A1337&amp;tr=udp%3A%2F%2Ftracker.coppersurfer.tk%3A6969&amp;tr=udp%3A%2F%2Fexodus.desync.com%3A6969","seeders":0,"leechers":1,"uploader":"HeroMaster","files":-1,"time":1360473009,"description":"(  ___  |\\     /|(  ____ \\(  __  \\\n| (   ) |( \\   / )| (    \\/| (  \\  \n| (___) | \\ (_) / | (__    | |   ) |\n|  ___  |   _ (  |  __)   | |   | |\n| (   ) | / ( ) \\ | (      | |   ) |\n| )   ( |( /   \\ )| (____/\\| (__/  \n|/     \\||/     \\|(_______/(______/\n _    _    _    _    _    _    _    _  \n/ \\  / \\  / \\  / \\  / \\  / \\  / \\  / \\\n( p )( r )( e )( s )( e )( n )( t )( s )\n\\_/  \\_/  \\_/  \\_/  \\_/  \\_/  \\_/  \\_/\n\n\nHansel.And.Gretel.Get.Baked.2013.HDRiP.AC3-2.0.XviD-AXED\n &lt;a href=&quot;\nhttp://www.imdb.com/title/tt2081194/&quot; rel=&quot;nofollow&quot; target=&quot;_NEW&quot;&gt;\nhttp://www.imdb.com/title/tt2081194/&lt;/a&gt;\n\nPLOT INFO:\nA brother and sister battle a witch who lures teenagers into her suburban home \nwith her special blend of marijuana where she then proceeds to kill and eat them \nto maintain her youth and beauty.\n\nMEDIAINFO:\nGeneral\nComplete name                            : Hansel.And.Gretel.Get.Baked.2013.HDRiP.AC3-2.0.XviD-AXED.avi\nFormat                                   : AVI\nFormat/Info                              : Audio Video Interleave\nFile size                                : 1.27 GiB\nDuration                                 : 1h 26mn\nOverall bit rate                         : 2 087 Kbps\n\nVideo\nID                                       : 0\nFormat                                   : MPEG-4 Visual\nFormat profile                           : Advanced Simple@L5\nFormat settings, BVOP                    : 2\nFormat settings, QPel                    : No\nFormat settings, GMC                     : No warppoints\nFormat settings, Matrix                  : Default (H.263)\nMuxing mode                              : Packed bitstream\nCodec ID                                 : XVID\nCodec ID/Hint                            : XviD\nDuration                                 : 1h 26mn\nBit rate                                 : 1 888 Kbps\nWidth                                    : 720 pixels\nHeight                                   : 384 pixels\nDisplay aspect ratio                     : 1.85:1\nFrame rate                               : 23.976 fps\nColor space                              : YUV\nChroma subsampling                       : 4:2:0\nBit depth                                : 8 bits\nScan type                                : Progressive\nCompression mode                         : Lossy\nBits/(Pixel*Frame)                       : 0.285\nStream size                              : 1.14 GiB (90%)\nWriting library                          : XviD 64\n\nAudio\nID                                       : 1\nFormat                                   : AC-3\nFormat/Info                              : Audio Coding 3\nMode extension                           : CM (complete main)\nFormat settings, Endianness              : Big\nCodec ID                                 : 2000\nDuration                                 : 1h 26mn\nBit rate mode                            : Constant\nBit rate                                 : 192 Kbps\nChannel(s)                               : 2 channels\nChannel positions                        : Front: L R\nSampling rate                            : 44.1 KHz\nBit depth                                : 16 bits\nCompression mode                         : Lossy\nStream size                              : 119 MiB (9%)\nAlignment                                : Aligned on interleaves\nInterleave, duration                     : 70 ms (1.67 video frames)\nInterleave, preload duration             : 208 ms\nTitle                                    : getbaked (1) - [1]\n\n\nSOURCE:\n720p Super Secret Source\n\nNOTES:\nA new stoner horror comedy twist on the tale of Hansel &amp; Gretel from our own \nsuper secret 720p source, enjoy!\n\nAXED! - The only name to trust for VOD/HDRiP!\n\n\nPoster:\n\n &lt;a href=&quot;\nhttp://i.imgur.com/pwa3enE.jpg&quot; rel=&quot;nofollow&quot; target=&quot;_NEW&quot;&gt;\nhttp://i.imgur.com/pwa3enE.jpg&lt;/a&gt;\n\n\nScreenshots:\n\n &lt;a href=&quot;\nhttp://i.imgur.com/NB0D7yn.png&quot; rel=&quot;nofollow&quot; target=&quot;_NEW&quot;&gt;\nhttp://i.imgur.com/NB0D7yn.png&lt;/a&gt;\n\n &lt;a href=&quot;\nhttp://i.imgur.com/B2t7WKu.png&quot; rel=&quot;nofollow&quot; target=&quot;_NEW&quot;&gt;\nhttp://i.imgur.com/B2t7WKu.png&lt;/a&gt;\n\n &lt;a href=&quot;\nhttp://i.imgur.com/xqrBfiS.png&quot; rel=&quot;nofollow&quot; target=&quot;_NEW&quot;&gt;\nhttp://i.imgur.com/xqrBfiS.png&lt;/a&gt;\n\n\nSEED AND ENJOY!","torrent":{"xt":"urn:btih:8e54ee30338eb0f4d5b59405ebff4142398390e1","amp;dn":"Hansel+And+Gretel+Get+Baked+2013+HDRiP+AC3-2+0+XviD-AXED","amp;tr":["udp%3A%2F%2Ftracker.openbittorrent.com%3A80","udp%3A%2F%2Fopen.demonii.com%3A1337","udp%3A%2F%2Ftracker.coppersurfer.tk%3A6969","udp%3A%2F%2Fexodus.desync.com%3A6969"],"infoHash":"8e54ee30338eb0f4d5b59405ebff4142398390e1","infoHashBuffer":{"type":"Buffer","data":[142,84,238,48,51,142,176,244,213,181,148,5,235,255,65,66,57,131,144,225]},"announce":[],"urlList":[]}}